<svg width="32" height="32" viewBox="0 0 32 32" fill="none" xmlns="http://www.w3.org/2000/svg">
<path d="M24.6968 7.31579H24.6811M1 16C1 8.92947 1 5.39263 3.19632 3.19632C5.39263 1 8.92789 1 16 1C23.0705 1 26.6074 1 28.8037 3.19632C31 5.39263 31 8.92789 31 16C31 23.0705 31 26.6074 28.8037 28.8037C26.6074 31 23.0721 31 16 31C8.92947 31 5.39263 31 3.19632 28.8037C1 26.6074 1 23.0721 1 16ZM23.1053 16C23.1053 17.8844 22.3567 19.6917 21.0242 21.0242C19.6917 22.3567 17.8844 23.1053 16 23.1053C14.1156 23.1053 12.3083 22.3567 10.9758 21.0242C9.64333 19.6917 8.89474 17.8844 8.89474 16C8.89474 14.1156 9.64333 12.3083 10.9758 10.9758C12.3083 9.64333 14.1156 8.89474 16 8.89474C17.8844 8.89474 19.6917 9.64333 21.0242 10.9758C22.3567 12.3083 23.1053 14.1156 23.1053 16Z" stroke="#1C1C1C" stroke-width="1.5" stroke-linecap="round" stroke-linejoin="round"/>
</svg>
