<svg width="66" height="66" viewBox="0 0 66 66" fill="none" xmlns="http://www.w3.org/2000/svg">
<circle cx="32.5872" cy="32.5872" r="32.5872" fill="white"/>
<path d="M26.0705 20.569C27.563 21.6567 28.7251 23.1414 29.7175 24.562L30.2946 25.403L30.8391 26.206C31.1115 26.6039 31.228 27.0881 31.1663 27.5664C31.1047 28.0446 30.8692 28.4834 30.5049 28.7993L27.9573 30.6913C27.8342 30.7802 27.7476 30.9107 27.7135 31.0587C27.6794 31.2066 27.7001 31.3619 27.7719 31.4957C28.349 32.5442 29.3754 34.1059 30.5506 35.2811C31.7258 36.4563 33.3619 37.5506 34.4836 38.193C34.6242 38.2719 34.7897 38.294 34.9461 38.2547C35.1025 38.2153 35.2379 38.1176 35.3245 37.9815L36.9828 35.4574C37.2877 35.0524 37.7374 34.7811 38.2379 34.7003C38.7383 34.6195 39.2506 34.7354 39.6675 35.0239L40.5332 35.6232C42.151 36.7462 43.889 38.0219 45.2183 39.7234C45.4291 39.9947 45.5632 40.3177 45.6066 40.6585C45.65 40.9994 45.6012 41.3456 45.4651 41.6611C44.3722 44.2113 41.6065 46.3828 38.7299 46.277L38.3382 46.2548L38.0339 46.2287L37.6971 46.1896L37.3301 46.1399L36.9319 46.0746L36.723 46.0355L36.2842 45.9415L36.0544 45.8892L35.5765 45.7665L35.0738 45.6228L34.5488 45.4531C32.1384 44.6357 29.079 43.0296 25.9399 39.8905C22.8008 36.7514 21.196 33.6933 20.3786 31.2829L20.2088 30.7579L20.0652 30.2552L19.9425 29.7773L19.8406 29.3255C19.8112 29.184 19.7838 29.0421 19.7584 28.8998L19.6931 28.5016L19.6408 28.1346L19.603 27.7977L19.5769 27.4935L19.556 27.1018C19.4502 24.2343 21.6452 21.4491 24.1836 20.3614C24.4891 20.2294 24.8237 20.1792 25.1545 20.2156C25.4853 20.252 25.8009 20.3738 26.0705 20.569ZM36.6929 25.2632L36.8444 25.2802C37.7949 25.4479 38.6679 25.9121 39.3383 26.6065C40.0087 27.3008 40.4421 28.1895 40.5763 29.1453C40.6241 29.4759 40.5435 29.8123 40.3509 30.0852C40.1583 30.3581 39.8685 30.5469 39.5409 30.6126C39.2134 30.6784 38.8732 30.6161 38.5902 30.4386C38.3072 30.2611 38.103 29.9819 38.0196 29.6585L37.9896 29.5083C37.937 29.1337 37.7771 28.7823 37.5292 28.4966C37.2812 28.2109 36.9559 28.0031 36.5924 27.8983L36.39 27.8526C36.0621 27.7945 35.7688 27.6133 35.5701 27.3461C35.3714 27.0789 35.2822 26.7459 35.3209 26.4151C35.3596 26.0844 35.5232 25.7809 35.7783 25.5668C36.0333 25.3527 36.3605 25.2441 36.6929 25.2632ZM36.7034 21.2937C38.7812 21.2937 40.774 22.1191 42.2433 23.5884C43.7126 25.0577 44.538 27.0505 44.538 29.1283C44.5376 29.4611 44.4102 29.7813 44.1817 30.0233C43.9533 30.2653 43.641 30.4109 43.3088 30.4304C42.9765 30.4499 42.6494 30.3418 42.3941 30.1282C42.1389 29.9146 41.9749 29.6116 41.9356 29.2811L41.9265 29.1283C41.9263 27.8024 41.4219 26.5261 40.5155 25.5584C39.6091 24.5906 38.3686 24.0038 37.0455 23.917L36.7034 23.9052C36.3571 23.9052 36.0249 23.7677 35.78 23.5228C35.5352 23.2779 35.3976 22.9458 35.3976 22.5995C35.3976 22.2532 35.5352 21.921 35.78 21.6761C36.0249 21.4313 36.3571 21.2937 36.7034 21.2937Z" fill="#1C1C1C"/>
</svg>
