<svg width="185" height="185" viewBox="0 0 185 185" fill="none" xmlns="http://www.w3.org/2000/svg">
<path d="M88.9106 14V3.81818H90.1435V8.86932H90.2628L94.8367 3.81818H96.4475L92.1719 8.41193L96.4475 14H94.956L91.4162 9.26705L90.1435 10.6989V14H88.9106Z" fill="#777777"/>
<path d="M111.833 11.1658C111.641 12.2224 111.285 13.1009 110.763 13.8013C110.242 14.5017 109.611 15.0002 108.87 15.2969C108.129 15.5936 107.331 15.6644 106.477 15.5094C105.623 15.3543 104.901 15.0077 104.311 14.4695C103.722 13.9314 103.306 13.2429 103.064 12.404C102.822 11.5651 102.797 10.6174 102.989 9.56081C103.18 8.5042 103.537 7.6257 104.058 6.92532C104.579 6.22493 105.211 5.72639 105.952 5.4297C106.693 5.133 107.49 5.06218 108.345 5.21723C109.199 5.37229 109.921 5.71889 110.511 6.25704C111.1 6.7952 111.516 7.48371 111.758 8.32258C112 9.16145 112.025 10.1092 111.833 11.1658ZM110.659 10.9527C110.816 10.0853 110.804 9.32682 110.622 8.67736C110.443 8.02849 110.136 7.50611 109.699 7.1102C109.265 6.71488 108.745 6.46218 108.139 6.35211C107.532 6.24203 106.955 6.29558 106.407 6.51277C105.862 6.73054 105.39 7.11149 104.992 7.6556C104.596 8.20031 104.32 8.9064 104.163 9.77386C104.005 10.6413 104.016 11.3995 104.195 12.0483C104.377 12.6978 104.684 13.2202 105.118 13.6155C105.555 14.0114 106.076 14.2644 106.683 14.3745C107.289 14.4846 107.865 14.4307 108.41 14.2129C108.958 13.9958 109.43 13.6148 109.825 13.0701C110.223 12.526 110.501 11.8202 110.659 10.9527Z" fill="#777777"/>
<path d="M116.116 17.7685L119.694 8.23597L120.848 8.6692L119.255 12.9142L124.338 14.8218L125.931 10.5768L127.085 11.01L123.508 20.5426L122.353 20.1094L123.953 15.8458L118.871 13.9382L117.271 18.2018L116.116 17.7685Z" fill="#777777"/>
<path d="M138.97 23.3187C138.419 24.2406 137.776 24.9378 137.042 25.4104C136.308 25.883 135.542 26.128 134.744 26.1454C133.946 26.1628 133.174 25.9488 132.429 25.5034C131.684 25.058 131.129 24.4798 130.767 23.7688C130.404 23.0579 130.256 22.2672 130.325 21.3968C130.393 20.5264 130.703 19.6303 131.253 18.7085C131.804 17.7866 132.447 17.0894 133.181 16.6168C133.915 16.1442 134.681 15.8992 135.479 15.8818C136.277 15.8644 137.049 16.0784 137.794 16.5238C138.539 16.9692 139.094 17.5474 139.456 18.2584C139.819 18.9693 139.967 19.76 139.898 20.6304C139.83 21.5008 139.52 22.3969 138.97 23.3187ZM137.945 22.7067C138.398 21.9499 138.653 21.2355 138.71 20.5635C138.771 19.8933 138.667 19.2961 138.397 18.7719C138.13 18.2495 137.732 17.8301 137.202 17.514C136.673 17.1978 136.114 17.045 135.524 17.0558C134.938 17.0683 134.362 17.2592 133.798 17.6286C133.237 17.9997 132.73 18.5636 132.278 19.3204C131.825 20.0773 131.569 20.7908 131.508 21.4611C131.45 22.1331 131.555 22.7303 131.822 23.2527C132.092 23.7769 132.491 24.1971 133.021 24.5132C133.55 24.8294 134.108 24.9813 134.694 24.9688C135.284 24.9581 135.859 24.7672 136.421 24.3961C136.985 24.0267 137.493 23.4636 137.945 22.7067Z" fill="#777777"/>
<path d="M153.439 28.6503L146.74 36.3179L145.841 35.5329L146.923 25.8622L146.848 25.7967L141.588 31.817L140.66 31.0058L147.359 23.3382L148.257 24.1232L147.178 33.822L147.253 33.8874L152.525 27.8522L153.439 28.6503Z" fill="#777777"/>
<path d="M161.953 38.3829L162.722 39.3469L157.031 43.8849C156.523 44.2899 156.018 44.5407 155.514 44.6372C155.01 44.7338 154.531 44.6857 154.076 44.4929C153.621 44.3002 153.21 43.9732 152.842 43.5119C152.495 43.0766 152.265 42.6262 152.153 42.1606C152.043 41.6931 152.058 41.2443 152.198 40.8144C152.339 40.3845 152.612 40.0073 153.019 39.6828L153.775 40.6312C153.55 40.811 153.397 41.0238 153.318 41.2695C153.243 41.5158 153.237 41.7746 153.301 42.046C153.365 42.3173 153.497 42.5786 153.697 42.83C153.919 43.1073 154.165 43.2966 154.437 43.3979C154.708 43.4993 154.997 43.5106 155.303 43.4319C155.614 43.3537 155.934 43.1833 156.263 42.9209L161.953 38.3829Z" fill="#777777"/>
<path d="M169.944 50.897L160.978 55.7219L160.394 54.6362L169.36 49.8113L169.944 50.897Z" fill="#777777"/>
<path d="M177.228 69.1733L167.545 72.3196L167.176 71.1848L173.064 63.4377L173.034 63.3432L165.431 65.8135L165.05 64.6409L174.733 61.4946L175.102 62.6294L169.201 70.4015L169.231 70.4961L176.853 68.0196L177.228 69.1733Z" fill="#777777"/>
<path d="M169.984 92.5064L180.156 92.9632L180.101 94.195L175.055 93.9683L175.049 94.0875L179.89 98.8834L179.818 100.493L175.421 96.0152L169.646 100.036L169.713 98.5458L174.6 95.2219L173.227 93.8862L169.929 93.7381L169.984 92.5064Z" fill="#777777"/>
<path d="M171.787 115.533C170.74 115.294 169.879 114.899 169.202 114.346C168.526 113.794 168.056 113.141 167.793 112.388C167.53 111.634 167.495 110.834 167.688 109.988C167.882 109.141 168.26 108.435 168.824 107.871C169.388 107.306 170.095 106.921 170.944 106.717C171.793 106.513 172.741 106.531 173.787 106.77C174.834 107.009 175.696 107.404 176.372 107.956C177.049 108.509 177.518 109.161 177.782 109.915C178.045 110.669 178.08 111.469 177.886 112.315C177.693 113.162 177.315 113.868 176.75 114.432C176.186 114.997 175.48 115.382 174.631 115.586C173.782 115.79 172.834 115.772 171.787 115.533ZM172.053 114.37C172.912 114.566 173.671 114.588 174.328 114.435C174.984 114.286 175.519 114.002 175.935 113.583C176.349 113.168 176.625 112.66 176.762 112.059C176.899 111.458 176.871 110.878 176.679 110.321C176.486 109.767 176.127 109.279 175.601 108.856C175.074 108.437 174.381 108.129 173.522 107.933C172.662 107.737 171.905 107.713 171.248 107.863C170.591 108.015 170.056 108.299 169.641 108.715C169.226 109.133 168.95 109.643 168.813 110.244C168.676 110.845 168.704 111.423 168.897 111.977C169.089 112.534 169.449 113.022 169.975 113.442C170.501 113.864 171.193 114.174 172.053 114.37Z" fill="#777777"/>
<path d="M164.999 119.515L174.361 123.517L173.877 124.651L169.708 122.869L167.574 127.861L171.743 129.643L171.258 130.777L161.896 126.775L162.381 125.641L166.568 127.431L168.702 122.439L164.514 120.649L164.999 119.515Z" fill="#777777"/>
<path d="M158.429 142.097C157.533 141.505 156.865 140.832 156.426 140.078C155.987 139.323 155.777 138.547 155.795 137.749C155.813 136.951 156.062 136.19 156.54 135.465C157.019 134.74 157.621 134.212 158.348 133.882C159.074 133.551 159.871 133.44 160.737 133.547C161.604 133.654 162.485 134.004 163.381 134.595C164.277 135.187 164.945 135.86 165.384 136.614C165.823 137.369 166.034 138.145 166.015 138.943C165.997 139.741 165.748 140.503 165.27 141.227C164.792 141.952 164.189 142.48 163.463 142.81C162.736 143.141 161.94 143.252 161.073 143.145C160.207 143.038 159.325 142.688 158.429 142.097ZM159.087 141.101C159.822 141.587 160.525 141.874 161.193 141.962C161.86 142.052 162.461 141.975 162.997 141.729C163.531 141.485 163.968 141.106 164.307 140.592C164.647 140.077 164.825 139.526 164.84 138.936C164.854 138.35 164.689 137.766 164.346 137.186C164 136.608 163.46 136.077 162.724 135.591C161.988 135.105 161.287 134.817 160.62 134.726C159.951 134.638 159.35 134.716 158.816 134.959C158.28 135.205 157.842 135.586 157.503 136.1C157.163 136.615 156.987 137.165 156.973 137.752C156.957 138.341 157.122 138.925 157.467 139.502C157.811 140.082 158.351 140.615 159.087 141.101Z" fill="#777777"/>
<path d="M152.454 156.312L145.095 149.276L145.919 148.414L155.532 149.928L155.601 149.856L149.822 144.332L150.674 143.44L158.034 150.477L157.209 151.339L147.569 149.825L147.5 149.897L153.293 155.436L152.454 156.312Z" fill="#777777"/>
<path d="M142.349 164.381L141.352 165.106L137.074 159.217C136.692 158.692 136.464 158.175 136.39 157.668C136.316 157.16 136.386 156.683 136.599 156.238C136.812 155.792 137.157 155.396 137.634 155.049C138.085 154.722 138.545 154.513 139.015 154.421C139.487 154.332 139.935 154.367 140.358 154.527C140.781 154.686 141.146 154.977 141.451 155.398L140.47 156.111C140.3 155.877 140.095 155.716 139.853 155.625C139.61 155.539 139.352 155.522 139.078 155.573C138.804 155.625 138.537 155.745 138.277 155.934C137.99 156.143 137.79 156.38 137.676 156.647C137.563 156.914 137.539 157.202 137.604 157.511C137.668 157.825 137.824 158.152 138.071 158.493L142.349 164.381Z" fill="#777777"/>
<path d="M129.489 171.803L125.071 162.629L126.182 162.094L130.6 171.268L129.489 171.803Z" fill="#777777"/>
<path d="M110.905 178.259L108.196 168.445L109.346 168.127L116.821 174.357L116.917 174.331L114.79 166.625L115.979 166.297L118.688 176.112L117.537 176.429L110.038 170.185L109.942 170.211L112.074 177.937L110.905 178.259Z" fill="#777777"/>
<path d="M87.9199 169.976L87.0072 180.117L85.7792 180.006L86.232 174.976L86.1132 174.965L81.1049 179.586L79.5006 179.441L84.1708 175.249L80.4133 169.301L81.8988 169.434L85.0001 174.465L86.396 173.153L86.6919 169.866L87.9199 169.976Z" fill="#777777"/>
<path d="M64.836 170.744C65.1217 169.709 65.5555 168.866 66.1374 168.215C66.7193 167.564 67.3925 167.124 68.1572 166.895C68.9218 166.666 69.7227 166.667 70.5597 166.898C71.3968 167.129 72.0848 167.539 72.6237 168.128C73.1626 168.717 73.5149 169.44 73.6806 170.297C73.8464 171.154 73.7864 172.1 73.5007 173.135C73.215 174.17 72.7812 175.013 72.1993 175.664C71.6174 176.315 70.9441 176.755 70.1795 176.984C69.4149 177.213 68.614 177.212 67.7769 176.981C66.9398 176.75 66.2519 176.34 65.713 175.752C65.174 175.163 64.8217 174.44 64.656 173.583C64.4903 172.725 64.5503 171.779 64.836 170.744ZM65.9862 171.061C65.7516 171.911 65.6958 172.668 65.8188 173.331C65.9386 173.993 66.1983 174.541 66.5978 174.975C66.9942 175.407 67.4895 175.705 68.0838 175.869C68.678 176.033 69.2578 176.032 69.8232 175.865C70.3853 175.697 70.8892 175.36 71.3349 174.853C71.7774 174.346 72.116 173.668 72.3505 172.818C72.585 171.968 72.6424 171.212 72.5226 170.55C72.3996 169.887 72.14 169.339 71.7436 168.906C71.344 168.473 70.8471 168.174 70.2529 168.01C69.6586 167.846 69.0804 167.848 68.5183 168.016C67.953 168.183 67.4491 168.52 67.0065 169.027C66.5608 169.534 66.2207 170.212 65.9862 171.061Z" fill="#777777"/>
<path d="M61.1616 163.784L56.7439 172.957L55.6331 172.422L57.6003 168.337L52.709 165.982L50.7417 170.067L49.6309 169.532L54.0486 160.358L55.1595 160.893L53.1836 164.996L58.0749 167.352L60.0508 163.249L61.1616 163.784Z" fill="#777777"/>
<path d="M38.8976 156.208C39.5288 155.339 40.2312 154.702 41.0046 154.298C41.7781 153.893 42.5631 153.717 43.3594 153.772C44.1558 153.826 44.9053 154.108 45.6078 154.618C46.3103 155.129 46.8104 155.754 47.108 156.495C47.4057 157.236 47.4815 158.036 47.3354 158.897C47.1894 159.758 46.8008 160.623 46.1696 161.491C45.5384 162.36 44.836 162.997 44.0625 163.402C43.289 163.807 42.5041 163.982 41.7077 163.928C40.9114 163.874 40.1619 163.591 39.4594 163.081C38.7569 162.571 38.2568 161.945 37.9592 161.204C37.6615 160.464 37.5857 159.663 37.7317 158.802C37.8778 157.942 38.2664 157.077 38.8976 156.208ZM39.8629 156.909C39.3447 157.623 39.0267 158.311 38.9088 158.975C38.7883 159.637 38.8389 160.242 39.0606 160.788C39.2797 161.332 39.6386 161.785 40.1374 162.148C40.6361 162.51 41.1795 162.712 41.7675 162.755C42.3528 162.795 42.9431 162.656 43.5382 162.339C44.1307 162.02 44.6861 161.503 45.2043 160.79C45.7225 160.077 46.0419 159.389 46.1624 158.727C46.2803 158.063 46.2297 157.459 46.0106 156.914C45.7888 156.368 45.4286 155.914 44.9298 155.552C44.4311 155.189 43.889 154.988 43.3037 154.948C42.7157 154.906 42.1254 155.044 41.533 155.364C40.9378 155.681 40.3811 156.196 39.8629 156.909Z" fill="#777777"/>
<path d="M24.9644 149.601L32.3238 142.565L33.1483 143.427L31.2043 152.962L31.273 153.034L37.0513 147.509L37.9033 148.4L30.5439 155.437L29.7194 154.574L31.6641 145.011L31.5953 144.939L25.8027 150.478L24.9644 149.601Z" fill="#777777"/>
<path d="M17.3571 139.144L16.6779 138.115L22.7523 134.105C23.2944 133.747 23.8207 133.543 24.3312 133.492C24.8416 133.441 25.3146 133.532 25.7502 133.765C26.1857 133.997 26.566 134.36 26.891 134.852C27.1978 135.317 27.3864 135.786 27.4569 136.26C27.5246 136.735 27.4692 137.181 27.2908 137.597C27.1124 138.012 26.8061 138.363 26.3718 138.65L25.7035 137.638C25.9442 137.479 26.1151 137.281 26.2164 137.043C26.3131 136.804 26.3419 136.547 26.3027 136.271C26.2635 135.995 26.1553 135.723 25.9782 135.455C25.7829 135.159 25.5545 134.948 25.2931 134.823C25.0316 134.698 24.745 134.66 24.4331 134.711C24.1167 134.761 23.7828 134.902 23.4315 135.134L17.3571 139.144Z" fill="#777777"/>
<path d="M10.52 125.964L19.8825 121.963L20.3671 123.096L11.0046 127.098L10.52 125.964Z" fill="#777777"/>
<path d="M4.90362 107.109L14.8302 104.843L15.0957 106.006L8.5364 113.195L8.55852 113.292L16.3524 111.513L16.6268 112.715L6.70023 114.98L6.43472 113.817L13.0089 106.605L12.9868 106.508L5.17355 108.292L4.90362 107.109Z" fill="#777777"/>
<path d="M14.2097 84.5188L4.12003 83.1521L4.28553 81.9303L9.29095 82.6083L9.30697 82.4901L4.91551 77.2796L5.13174 75.6833L9.10999 80.5368L15.2214 77.0501L15.0212 78.5281L9.85592 81.4005L11.1039 82.8539L14.3752 83.297L14.2097 84.5188Z" fill="#777777"/>
<path d="M14.4782 61.4237C15.4995 61.7555 16.3222 62.2267 16.9463 62.8372C17.5704 63.4477 17.9797 64.1401 18.1742 64.9142C18.3688 65.6883 18.3319 66.4883 18.0635 67.3142C17.7952 68.1401 17.3548 68.809 16.7424 69.3209C16.13 69.8329 15.3919 70.1524 14.5281 70.2795C13.6644 70.4066 12.7219 70.3042 11.7006 69.9724C10.6793 69.6405 9.85657 69.1694 9.23249 68.5588C8.60841 67.9483 8.1991 67.256 8.00455 66.4819C7.81001 65.7077 7.84691 64.9077 8.11525 64.0818C8.38359 63.256 8.82397 62.5871 9.43639 62.0751C10.0488 61.5632 10.7869 61.2436 11.6506 61.1166C12.5144 60.9895 13.4569 61.0918 14.4782 61.4237ZM14.1095 62.5585C13.271 62.286 12.5178 62.1964 11.8498 62.2895C11.1828 62.3794 10.6238 62.6143 10.1729 62.994C9.72293 63.3705 9.40271 63.852 9.21221 64.4383C9.02171 65.0246 8.99728 65.6038 9.13893 66.1761C9.28161 66.7452 9.59579 67.2637 10.0815 67.7317C10.5682 68.1965 11.2308 68.5652 12.0693 68.8376C12.9078 69.11 13.6605 69.2013 14.3275 69.1113C14.9955 69.0182 15.5544 68.7834 16.0044 68.4068C16.4553 68.0271 16.7761 67.5441 16.9666 66.9578C17.1571 66.3715 17.181 65.7938 17.0383 65.2247C16.8967 64.6524 16.5825 64.1339 16.0958 63.6691C15.6101 63.2011 14.948 62.8309 14.1095 62.5585Z" fill="#777777"/>
<path d="M21.5962 58.065L12.6302 53.2402L13.2144 52.1545L17.2071 54.303L19.7798 49.5223L15.7871 47.3737L16.3713 46.288L25.3374 51.1128L24.7531 52.1986L20.7429 50.0406L18.1703 54.8213L22.1805 56.9793L21.5962 58.065Z" fill="#777777"/>
<path d="M30.1637 36.1634C31.0032 36.833 31.6079 37.5632 31.9777 38.354C32.3475 39.1449 32.4874 39.9369 32.3975 40.7301C32.3076 41.5232 31.992 42.2592 31.4506 42.9381C30.9092 43.6171 30.2618 44.0886 29.5086 44.3527C28.7553 44.6168 27.952 44.6566 27.0987 44.4721C26.2454 44.2876 25.3989 43.8606 24.5593 43.191C23.7198 42.5215 23.1151 41.7913 22.7453 41.0004C22.3756 40.2095 22.2356 39.4175 22.3255 38.6244C22.4154 37.8312 22.731 37.0952 23.2724 36.4163C23.8139 35.7374 24.4612 35.2659 25.2144 35.0017C25.9677 34.7376 26.771 34.6978 27.6243 34.8823C28.4776 35.0669 29.3241 35.4939 30.1637 36.1634ZM29.4197 37.0963C28.7304 36.5466 28.0567 36.198 27.3986 36.0504C26.7426 35.9003 26.1367 35.9238 25.5811 36.1208C25.0275 36.3152 24.5586 36.6535 24.1742 37.1354C23.7898 37.6174 23.5634 38.1512 23.495 38.7367C23.4286 39.3197 23.5405 39.9155 23.8308 40.5243C24.1232 41.1305 24.614 41.7085 25.3033 42.2582C25.9926 42.8078 26.6652 43.1578 27.3213 43.3079C27.9794 43.4554 28.5853 43.432 29.1388 43.2375C29.6944 43.0405 30.1644 42.701 30.5488 42.219C30.9332 41.737 31.1586 41.2046 31.2249 40.6216C31.2934 40.0361 31.1815 39.4402 30.8891 38.834C30.5988 38.2252 30.109 37.646 29.4197 37.0963Z" fill="#777777"/>
<path d="M37.389 22.5406L44.088 30.2083L43.1895 30.9933L33.7514 28.6234L33.6765 28.6889L38.9363 34.7092L38.0078 35.5204L31.3088 27.8527L32.2073 27.0677L41.6734 29.4394L41.7483 29.374L36.4755 23.3387L37.389 22.5406Z" fill="#777777"/>
<path d="M48.1765 15.4101L49.2349 14.7777L52.968 21.0259C53.3012 21.5835 53.4818 22.1185 53.5098 22.6307C53.5379 23.1429 53.4259 23.6113 53.1739 24.036C52.9218 24.4607 52.5426 24.8244 52.0361 25.127C51.5581 25.4125 51.0809 25.5799 50.6045 25.629C50.1264 25.6753 49.6837 25.6 49.2765 25.4032C48.8693 25.2063 48.5323 24.8845 48.2654 24.4378L49.3068 23.8157C49.4547 24.0632 49.645 24.2429 49.8779 24.3547C50.1119 24.462 50.3676 24.5023 50.645 24.4755C50.9224 24.4488 51.1992 24.3529 51.4751 24.188C51.7796 24.0061 52.0003 23.7874 52.1372 23.5319C52.274 23.2764 52.324 22.9917 52.2871 22.6778C52.2513 22.3595 52.1255 22.0196 51.9096 21.6583L48.1765 15.4101Z" fill="#777777"/>
<path d="M61.65 9.17139L65.2277 18.704L64.0733 19.1372L60.4957 9.60462L61.65 9.17139Z" fill="#777777"/>
<path d="M80.7384 4.4063L82.5565 14.4245L81.3825 14.6375L74.4959 7.76239L74.3981 7.78014L75.8255 15.646L74.6124 15.8661L72.7943 5.84795L73.9683 5.6349L80.878 12.5261L80.9758 12.5083L79.5449 4.62291L80.7384 4.4063Z" fill="#777777"/>
</svg>
